<svg id="visual" viewBox="0 0 2000 600" width="2000" height="600" xmlns="http://www.w3.org/2000/svg" xmlns:xlink="http://www.w3.org/1999/xlink" version="1.1"><g stroke-width="1" stroke-linejoin="bevel"><path d="M996 300L904 301L1000 395Z" fill="#ebf0f4" stroke="#ebf0f4"></path><path d="M904 301L900 396L1000 395Z" fill="#e7edf2" stroke="#e7edf2"></path><path d="M1002 503L1095 403L1000 395Z" fill="#f3f6f8" stroke="#f3f6f8"></path><path d="M1000 395L1096 298L996 300Z" fill="#ffffff" stroke="#ffffff"></path><path d="M1095 403L1096 298L1000 395Z" fill="#e7edf2" stroke="#e7edf2"></path><path d="M996 300L1002 203L904 301Z" fill="#dce4eb" stroke="#dce4eb"></path><path d="M1096 298L1002 203L996 300Z" fill="#e0e7ed" stroke="#e0e7ed"></path><path d="M900 396L900 498L1000 395Z" fill="#fbfcfd" stroke="#fbfcfd"></path><path d="M799 301L900 396L904 301Z" fill="#f3f6f8" stroke="#f3f6f8"></path><path d="M799 301L800 398L900 396Z" fill="#f7f9fb" stroke="#f7f9fb"></path><path d="M900 396L802 495L900 498Z" fill="#f3f6f8" stroke="#f3f6f8"></path><path d="M898 198L799 301L904 301Z" fill="#e7edf2" stroke="#e7edf2"></path><path d="M1002 203L898 198L904 301Z" fill="#ebf0f4" stroke="#ebf0f4"></path><path d="M900 498L1002 503L1000 395Z" fill="#f7f9fb" stroke="#f7f9fb"></path><path d="M800 398L802 495L900 396Z" fill="#ebf0f4" stroke="#ebf0f4"></path><path d="M900 498L899 600L1002 503Z" fill="#fbfcfd" stroke="#fbfcfd"></path><path d="M1096 298L1099 200L1002 203Z" fill="#ebf0f4" stroke="#ebf0f4"></path><path d="M1002 203L901 102L898 198Z" fill="#e3eaf0" stroke="#e3eaf0"></path><path d="M1204 204L1099 200L1096 298Z" fill="#e3eaf0" stroke="#e3eaf0"></path><path d="M898 198L800 202L799 301Z" fill="#e0e7ed" stroke="#e0e7ed"></path><path d="M1002 503L1104 499L1095 403Z" fill="#eff3f6" stroke="#eff3f6"></path><path d="M1095 403L1204 303L1096 298Z" fill="#dce4eb" stroke="#dce4eb"></path><path d="M1002 96L901 102L1002 203Z" fill="#f7f9fb" stroke="#f7f9fb"></path><path d="M898 198L795 104L800 202Z" fill="#fbfcfd" stroke="#fbfcfd"></path><path d="M804 600L899 600L900 498Z" fill="#eff3f6" stroke="#eff3f6"></path><path d="M1002 503L1100 600L1104 499Z" fill="#ffffff" stroke="#ffffff"></path><path d="M899 600L1003 600L1002 503Z" fill="#d8e1e9" stroke="#d8e1e9"></path><path d="M704 202L698 302L799 301Z" fill="#fbfcfd" stroke="#fbfcfd"></path><path d="M799 301L698 302L800 398Z" fill="#e0e7ed" stroke="#e0e7ed"></path><path d="M800 398L695 404L802 495Z" fill="#eff3f6" stroke="#eff3f6"></path><path d="M704 202L799 301L800 202Z" fill="#e7edf2" stroke="#e7edf2"></path><path d="M1204 501L1203 401L1104 499Z" fill="#ebf0f4" stroke="#ebf0f4"></path><path d="M1104 499L1203 401L1095 403Z" fill="#f3f6f8" stroke="#f3f6f8"></path><path d="M1203 401L1204 303L1095 403Z" fill="#f7f9fb" stroke="#f7f9fb"></path><path d="M1098 102L1002 203L1099 200Z" fill="#e7edf2" stroke="#e7edf2"></path><path d="M1098 102L1002 96L1002 203Z" fill="#ffffff" stroke="#ffffff"></path><path d="M698 302L695 404L800 398Z" fill="#d8e1e9" stroke="#d8e1e9"></path><path d="M802 495L804 600L900 498Z" fill="#e0e7ed" stroke="#e0e7ed"></path><path d="M795 104L704 202L800 202Z" fill="#ebf0f4" stroke="#ebf0f4"></path><path d="M1202 98L1098 102L1099 200Z" fill="#ffffff" stroke="#ffffff"></path><path d="M699 501L804 600L802 495Z" fill="#e3eaf0" stroke="#e3eaf0"></path><path d="M901 102L795 104L898 198Z" fill="#f3f6f8" stroke="#f3f6f8"></path><path d="M701 101L795 104L802 0Z" fill="#f3f6f8" stroke="#f3f6f8"></path><path d="M1003 600L1100 600L1002 503Z" fill="#e0e7ed" stroke="#e0e7ed"></path><path d="M1204 303L1204 204L1096 298Z" fill="#ebf0f4" stroke="#ebf0f4"></path><path d="M695 404L699 501L802 495Z" fill="#e7edf2" stroke="#e7edf2"></path><path d="M1200 600L1204 501L1104 499Z" fill="#f3f6f8" stroke="#f3f6f8"></path><path d="M1203 401L1296 403L1204 303Z" fill="#dce4eb" stroke="#dce4eb"></path><path d="M1204 501L1296 403L1203 401Z" fill="#f7f9fb" stroke="#f7f9fb"></path><path d="M1204 303L1299 300L1204 204Z" fill="#ffffff" stroke="#ffffff"></path><path d="M704 202L603 296L698 302Z" fill="#eff3f6" stroke="#eff3f6"></path><path d="M698 302L603 296L695 404Z" fill="#dce4eb" stroke="#dce4eb"></path><path d="M695 404L603 501L699 501Z" fill="#ffffff" stroke="#ffffff"></path><path d="M601 197L603 296L704 202Z" fill="#ebf0f4" stroke="#ebf0f4"></path><path d="M1296 403L1299 300L1204 303Z" fill="#e3eaf0" stroke="#e3eaf0"></path><path d="M802 0L795 104L901 102Z" fill="#ebf0f4" stroke="#ebf0f4"></path><path d="M795 104L701 101L704 202Z" fill="#e7edf2" stroke="#e7edf2"></path><path d="M998 0L904 0L1002 96Z" fill="#e0e7ed" stroke="#e0e7ed"></path><path d="M1002 96L904 0L901 102Z" fill="#f7f9fb" stroke="#f7f9fb"></path><path d="M1095 0L1002 96L1098 102Z" fill="#dce4eb" stroke="#dce4eb"></path><path d="M1095 0L998 0L1002 96Z" fill="#ffffff" stroke="#ffffff"></path><path d="M1100 600L1200 600L1104 499Z" fill="#e3eaf0" stroke="#e3eaf0"></path><path d="M1204 501L1301 503L1296 403Z" fill="#e7edf2" stroke="#e7edf2"></path><path d="M603 501L700 600L699 501Z" fill="#d8e1e9" stroke="#d8e1e9"></path><path d="M699 501L700 600L804 600Z" fill="#dce4eb" stroke="#dce4eb"></path><path d="M1297 103L1202 98L1204 204Z" fill="#ffffff" stroke="#ffffff"></path><path d="M1204 204L1202 98L1099 200Z" fill="#e0e7ed" stroke="#e0e7ed"></path><path d="M603 296L596 401L695 404Z" fill="#dce4eb" stroke="#dce4eb"></path><path d="M1198 0L1095 0L1098 102Z" fill="#e3eaf0" stroke="#e3eaf0"></path><path d="M596 401L603 501L695 404Z" fill="#fbfcfd" stroke="#fbfcfd"></path><path d="M904 0L802 0L901 102Z" fill="#ffffff" stroke="#ffffff"></path><path d="M701 101L601 197L704 202Z" fill="#e3eaf0" stroke="#e3eaf0"></path><path d="M603 296L499 303L596 401Z" fill="#e7edf2" stroke="#e7edf2"></path><path d="M603 98L601 197L701 101Z" fill="#f3f6f8" stroke="#f3f6f8"></path><path d="M1295 600L1301 503L1204 501Z" fill="#eff3f6" stroke="#eff3f6"></path><path d="M1296 403L1399 401L1299 300Z" fill="#eff3f6" stroke="#eff3f6"></path><path d="M1401 300L1304 202L1299 300Z" fill="#e0e7ed" stroke="#e0e7ed"></path><path d="M1299 300L1304 202L1204 204Z" fill="#e3eaf0" stroke="#e3eaf0"></path><path d="M1304 202L1297 103L1204 204Z" fill="#e7edf2" stroke="#e7edf2"></path><path d="M1202 98L1198 0L1098 102Z" fill="#d8e1e9" stroke="#d8e1e9"></path><path d="M1200 600L1295 600L1204 501Z" fill="#e0e7ed" stroke="#e0e7ed"></path><path d="M1298 0L1198 0L1202 98Z" fill="#ebf0f4" stroke="#ebf0f4"></path><path d="M695 0L603 98L701 101Z" fill="#eff3f6" stroke="#eff3f6"></path><path d="M500 202L499 303L603 296Z" fill="#f7f9fb" stroke="#f7f9fb"></path><path d="M603 501L599 600L700 600Z" fill="#fbfcfd" stroke="#fbfcfd"></path><path d="M500 600L599 600L603 501Z" fill="#e0e7ed" stroke="#e0e7ed"></path><path d="M802 0L695 0L701 101Z" fill="#dce4eb" stroke="#dce4eb"></path><path d="M1403 496L1399 401L1301 503Z" fill="#eff3f6" stroke="#eff3f6"></path><path d="M1301 503L1399 401L1296 403Z" fill="#ffffff" stroke="#ffffff"></path><path d="M1304 202L1396 98L1297 103Z" fill="#ebf0f4" stroke="#ebf0f4"></path><path d="M1399 401L1401 300L1299 300Z" fill="#e7edf2" stroke="#e7edf2"></path><path d="M500 202L603 296L601 197Z" fill="#e0e7ed" stroke="#e0e7ed"></path><path d="M596 401L499 497L603 501Z" fill="#e3eaf0" stroke="#e3eaf0"></path><path d="M499 303L495 402L596 401Z" fill="#eff3f6" stroke="#eff3f6"></path><path d="M499 95L500 202L601 197Z" fill="#d8e1e9" stroke="#d8e1e9"></path><path d="M499 303L403 304L495 402Z" fill="#e7edf2" stroke="#e7edf2"></path><path d="M499 95L601 197L603 98Z" fill="#ffffff" stroke="#ffffff"></path><path d="M1401 300L1402 202L1304 202Z" fill="#e3eaf0" stroke="#e3eaf0"></path><path d="M1297 103L1298 0L1202 98Z" fill="#f7f9fb" stroke="#f7f9fb"></path><path d="M495 402L499 497L596 401Z" fill="#ebf0f4" stroke="#ebf0f4"></path><path d="M1398 600L1403 496L1301 503Z" fill="#f3f6f8" stroke="#f3f6f8"></path><path d="M1399 401L1496 398L1401 300Z" fill="#ffffff" stroke="#ffffff"></path><path d="M1401 300L1500 296L1402 202Z" fill="#dce4eb" stroke="#dce4eb"></path><path d="M1396 98L1298 0L1297 103Z" fill="#f3f6f8" stroke="#f3f6f8"></path><path d="M695 0L596 0L603 98Z" fill="#dce4eb" stroke="#dce4eb"></path><path d="M1402 202L1396 98L1304 202Z" fill="#fbfcfd" stroke="#fbfcfd"></path><path d="M1295 600L1398 600L1301 503Z" fill="#e0e7ed" stroke="#e0e7ed"></path><path d="M499 497L500 600L603 501Z" fill="#ebf0f4" stroke="#ebf0f4"></path><path d="M403 600L500 600L499 497Z" fill="#d8e1e9" stroke="#d8e1e9"></path><path d="M596 0L499 95L603 98Z" fill="#e7edf2" stroke="#e7edf2"></path><path d="M500 202L403 304L499 303Z" fill="#e0e7ed" stroke="#e0e7ed"></path><path d="M1495 497L1496 398L1403 496Z" fill="#ffffff" stroke="#ffffff"></path><path d="M1403 496L1496 398L1399 401Z" fill="#f7f9fb" stroke="#f7f9fb"></path><path d="M1402 202L1497 199L1396 98Z" fill="#e3eaf0" stroke="#e3eaf0"></path><path d="M397 197L403 304L500 202Z" fill="#ebf0f4" stroke="#ebf0f4"></path><path d="M495 402L399 497L499 497Z" fill="#fbfcfd" stroke="#fbfcfd"></path><path d="M1496 398L1500 296L1401 300Z" fill="#f3f6f8" stroke="#f3f6f8"></path><path d="M403 304L398 398L495 402Z" fill="#dce4eb" stroke="#dce4eb"></path><path d="M1496 600L1495 497L1403 496Z" fill="#ffffff" stroke="#ffffff"></path><path d="M1496 398L1600 399L1500 296Z" fill="#e7edf2" stroke="#e7edf2"></path><path d="M1500 296L1497 199L1402 202Z" fill="#e7edf2" stroke="#e7edf2"></path><path d="M1495 0L1400 0L1396 98Z" fill="#d8e1e9" stroke="#d8e1e9"></path><path d="M1396 98L1400 0L1298 0Z" fill="#f7f9fb" stroke="#f7f9fb"></path><path d="M398 398L399 497L495 402Z" fill="#dce4eb" stroke="#dce4eb"></path><path d="M596 0L497 0L499 95Z" fill="#dce4eb" stroke="#dce4eb"></path><path d="M499 95L397 197L500 202Z" fill="#f7f9fb" stroke="#f7f9fb"></path><path d="M397 99L397 197L499 95Z" fill="#fbfcfd" stroke="#fbfcfd"></path><path d="M403 304L304 301L398 398Z" fill="#f3f6f8" stroke="#f3f6f8"></path><path d="M1398 600L1496 600L1403 496Z" fill="#dce4eb" stroke="#dce4eb"></path><path d="M1495 497L1600 399L1496 398Z" fill="#e7edf2" stroke="#e7edf2"></path><path d="M399 497L403 600L499 497Z" fill="#fbfcfd" stroke="#fbfcfd"></path><path d="M1595 102L1502 98L1497 199Z" fill="#ebf0f4" stroke="#ebf0f4"></path><path d="M1497 199L1502 98L1396 98Z" fill="#dce4eb" stroke="#dce4eb"></path><path d="M400 0L397 99L499 95Z" fill="#f7f9fb" stroke="#f7f9fb"></path><path d="M1502 98L1495 0L1396 98Z" fill="#e7edf2" stroke="#e7edf2"></path><path d="M302 202L304 301L397 197Z" fill="#e3eaf0" stroke="#e3eaf0"></path><path d="M397 197L304 301L403 304Z" fill="#e7edf2" stroke="#e7edf2"></path><path d="M398 398L298 399L399 497Z" fill="#e7edf2" stroke="#e7edf2"></path><path d="M399 497L302 600L403 600Z" fill="#e0e7ed" stroke="#e0e7ed"></path><path d="M1604 504L1600 399L1495 497Z" fill="#ffffff" stroke="#ffffff"></path><path d="M1500 296L1601 199L1497 199Z" fill="#ffffff" stroke="#ffffff"></path><path d="M1502 98L1598 0L1495 0Z" fill="#f3f6f8" stroke="#f3f6f8"></path><path d="M497 0L400 0L499 95Z" fill="#ffffff" stroke="#ffffff"></path><path d="M299 104L302 202L397 197Z" fill="#dce4eb" stroke="#dce4eb"></path><path d="M1600 399L1603 301L1500 296Z" fill="#fbfcfd" stroke="#fbfcfd"></path><path d="M304 301L298 399L398 398Z" fill="#e7edf2" stroke="#e7edf2"></path><path d="M299 104L397 197L397 99Z" fill="#e3eaf0" stroke="#e3eaf0"></path><path d="M304 301L203 296L298 399Z" fill="#ffffff" stroke="#ffffff"></path><path d="M1603 301L1601 199L1500 296Z" fill="#e3eaf0" stroke="#e3eaf0"></path><path d="M1496 600L1604 504L1495 497Z" fill="#dce4eb" stroke="#dce4eb"></path><path d="M1600 399L1698 399L1603 301Z" fill="#e3eaf0" stroke="#e3eaf0"></path><path d="M298 399L297 504L399 497Z" fill="#e0e7ed" stroke="#e0e7ed"></path><path d="M1601 199L1595 102L1497 199Z" fill="#fbfcfd" stroke="#fbfcfd"></path><path d="M297 504L302 600L399 497Z" fill="#d8e1e9" stroke="#d8e1e9"></path><path d="M297 0L299 104L397 99Z" fill="#eff3f6" stroke="#eff3f6"></path><path d="M302 202L203 296L304 301Z" fill="#fbfcfd" stroke="#fbfcfd"></path><path d="M298 399L195 498L297 504Z" fill="#e0e7ed" stroke="#e0e7ed"></path><path d="M1496 600L1602 600L1604 504Z" fill="#ffffff" stroke="#ffffff"></path><path d="M1699 96L1595 102L1601 199Z" fill="#e3eaf0" stroke="#e3eaf0"></path><path d="M1699 96L1598 0L1595 102Z" fill="#dce4eb" stroke="#dce4eb"></path><path d="M1595 102L1598 0L1502 98Z" fill="#f7f9fb" stroke="#f7f9fb"></path><path d="M400 0L297 0L397 99Z" fill="#d8e1e9" stroke="#d8e1e9"></path><path d="M200 196L203 296L302 202Z" fill="#eff3f6" stroke="#eff3f6"></path><path d="M1696 500L1698 399L1600 399Z" fill="#eff3f6" stroke="#eff3f6"></path><path d="M1603 301L1699 296L1601 199Z" fill="#fbfcfd" stroke="#fbfcfd"></path><path d="M1696 500L1600 399L1604 504Z" fill="#e7edf2" stroke="#e7edf2"></path><path d="M200 196L302 202L299 104Z" fill="#f3f6f8" stroke="#f3f6f8"></path><path d="M297 504L195 600L302 600Z" fill="#ffffff" stroke="#ffffff"></path><path d="M1698 399L1699 296L1603 301Z" fill="#ebf0f4" stroke="#ebf0f4"></path><path d="M203 296L196 397L298 399Z" fill="#fbfcfd" stroke="#fbfcfd"></path><path d="M1702 600L1696 500L1604 504Z" fill="#ebf0f4" stroke="#ebf0f4"></path><path d="M202 96L200 196L299 104Z" fill="#dce4eb" stroke="#dce4eb"></path><path d="M96 297L104 402L196 397Z" fill="#d8e1e9" stroke="#d8e1e9"></path><path d="M1699 296L1704 203L1601 199Z" fill="#eff3f6" stroke="#eff3f6"></path><path d="M1798 303L1704 203L1699 296Z" fill="#fbfcfd" stroke="#fbfcfd"></path><path d="M1798 303L1699 296L1698 399Z" fill="#fbfcfd" stroke="#fbfcfd"></path><path d="M196 397L195 498L298 399Z" fill="#dce4eb" stroke="#dce4eb"></path><path d="M1704 203L1699 96L1601 199Z" fill="#e0e7ed" stroke="#e0e7ed"></path><path d="M297 0L202 96L299 104Z" fill="#ffffff" stroke="#ffffff"></path><path d="M1602 600L1702 600L1604 504Z" fill="#ebf0f4" stroke="#ebf0f4"></path><path d="M1798 398L1798 303L1698 399Z" fill="#e3eaf0" stroke="#e3eaf0"></path><path d="M195 498L195 600L297 504Z" fill="#fbfcfd" stroke="#fbfcfd"></path><path d="M297 0L203 0L202 96Z" fill="#eff3f6" stroke="#eff3f6"></path><path d="M96 297L203 296L99 197Z" fill="#ffffff" stroke="#ffffff"></path><path d="M96 297L196 397L203 296Z" fill="#fbfcfd" stroke="#fbfcfd"></path><path d="M1798 98L1703 0L1699 96Z" fill="#ffffff" stroke="#ffffff"></path><path d="M1699 96L1703 0L1598 0Z" fill="#e3eaf0" stroke="#e3eaf0"></path><path d="M196 397L104 402L195 498Z" fill="#f3f6f8" stroke="#f3f6f8"></path><path d="M195 498L104 497L195 600Z" fill="#f7f9fb" stroke="#f7f9fb"></path><path d="M203 296L200 196L99 197Z" fill="#f7f9fb" stroke="#f7f9fb"></path><path d="M1798 398L1698 399L1696 500Z" fill="#e3eaf0" stroke="#e3eaf0"></path><path d="M1704 203L1798 98L1699 96Z" fill="#dce4eb" stroke="#dce4eb"></path><path d="M1802 502L1798 398L1696 500Z" fill="#fbfcfd" stroke="#fbfcfd"></path><path d="M99 197L200 196L97 104Z" fill="#e0e7ed" stroke="#e0e7ed"></path><path d="M0 495L104 497L104 402Z" fill="#e7edf2" stroke="#e7edf2"></path><path d="M104 402L104 497L195 498Z" fill="#d8e1e9" stroke="#d8e1e9"></path><path d="M1895 200L1801 197L1798 303Z" fill="#d8e1e9" stroke="#d8e1e9"></path><path d="M1798 303L1801 197L1704 203Z" fill="#fbfcfd" stroke="#fbfcfd"></path><path d="M1702 600L1802 502L1696 500Z" fill="#e3eaf0" stroke="#e3eaf0"></path><path d="M1798 398L1895 396L1798 303Z" fill="#ebf0f4" stroke="#ebf0f4"></path><path d="M97 104L200 196L202 96Z" fill="#e0e7ed" stroke="#e0e7ed"></path><path d="M1801 197L1798 98L1704 203Z" fill="#eff3f6" stroke="#eff3f6"></path><path d="M1702 600L1800 600L1802 502Z" fill="#e7edf2" stroke="#e7edf2"></path><path d="M99 0L97 104L202 96Z" fill="#e3eaf0" stroke="#e3eaf0"></path><path d="M0 297L0 401L96 297Z" fill="#eff3f6" stroke="#eff3f6"></path><path d="M0 495L97 600L104 497Z" fill="#dce4eb" stroke="#dce4eb"></path><path d="M104 497L97 600L195 600Z" fill="#dce4eb" stroke="#dce4eb"></path><path d="M1898 0L1800 0L1798 98Z" fill="#fbfcfd" stroke="#fbfcfd"></path><path d="M1798 98L1800 0L1703 0Z" fill="#e3eaf0" stroke="#e3eaf0"></path><path d="M203 0L99 0L202 96Z" fill="#eff3f6" stroke="#eff3f6"></path><path d="M1802 502L1895 396L1798 398Z" fill="#eff3f6" stroke="#eff3f6"></path><path d="M1801 197L1903 104L1798 98Z" fill="#d8e1e9" stroke="#d8e1e9"></path><path d="M1901 503L1895 396L1802 502Z" fill="#e7edf2" stroke="#e7edf2"></path><path d="M1895 396L1901 298L1798 303Z" fill="#e0e7ed" stroke="#e0e7ed"></path><path d="M96 297L0 401L104 402Z" fill="#dce4eb" stroke="#dce4eb"></path><path d="M0 297L96 297L0 204Z" fill="#d8e1e9" stroke="#d8e1e9"></path><path d="M96 297L99 197L0 204Z" fill="#e7edf2" stroke="#e7edf2"></path><path d="M0 204L99 197L97 104Z" fill="#e3eaf0" stroke="#e3eaf0"></path><path d="M1901 298L1895 200L1798 303Z" fill="#e0e7ed" stroke="#e0e7ed"></path><path d="M0 97L0 204L97 104Z" fill="#f3f6f8" stroke="#f3f6f8"></path><path d="M0 401L0 495L104 402Z" fill="#eff3f6" stroke="#eff3f6"></path><path d="M1895 396L2000 298L1901 298Z" fill="#f3f6f8" stroke="#f3f6f8"></path><path d="M1895 600L1901 503L1802 502Z" fill="#ebf0f4" stroke="#ebf0f4"></path><path d="M1800 600L1895 600L1802 502Z" fill="#e0e7ed" stroke="#e0e7ed"></path><path d="M0 495L0 600L97 600Z" fill="#e3eaf0" stroke="#e3eaf0"></path><path d="M99 0L0 97L97 104Z" fill="#ebf0f4" stroke="#ebf0f4"></path><path d="M1895 200L1903 104L1801 197Z" fill="#ffffff" stroke="#ffffff"></path><path d="M2000 201L1903 104L1895 200Z" fill="#ffffff" stroke="#ffffff"></path><path d="M2000 201L1895 200L1901 298Z" fill="#ffffff" stroke="#ffffff"></path><path d="M1903 104L1898 0L1798 98Z" fill="#e0e7ed" stroke="#e0e7ed"></path><path d="M99 0L0 0L0 97Z" fill="#ffffff" stroke="#ffffff"></path><path d="M2000 403L1895 396L1901 503Z" fill="#e0e7ed" stroke="#e0e7ed"></path><path d="M2000 403L2000 298L1895 396Z" fill="#d8e1e9" stroke="#d8e1e9"></path><path d="M1903 104L2000 99L1898 0Z" fill="#e3eaf0" stroke="#e3eaf0"></path><path d="M2000 496L2000 403L1901 503Z" fill="#ebf0f4" stroke="#ebf0f4"></path><path d="M2000 600L2000 496L1901 503Z" fill="#f7f9fb" stroke="#f7f9fb"></path><path d="M2000 298L2000 201L1901 298Z" fill="#ebf0f4" stroke="#ebf0f4"></path><path d="M2000 201L2000 99L1903 104Z" fill="#f3f6f8" stroke="#f3f6f8"></path><path d="M1895 600L2000 600L1901 503Z" fill="#e0e7ed" stroke="#e0e7ed"></path><path d="M2000 99L2000 0L1898 0Z" fill="#e7edf2" stroke="#e7edf2"></path></g></svg>